<svg xmlns="http://www.w3.org/2000/svg" xmlns:xlink="http://www.w3.org/1999/xlink" width="303" height="160" viewBox="0 0 303 160">
  <defs>
    <linearGradient id="linear-gradient" x1="0.5" y1="0.5" x2="0.5" y2="0.5" gradientUnits="objectBoundingBox">
      <stop offset="0" stop-color="#8082bd"/>
      <stop offset="1" stop-color="#e3ce61"/>
    </linearGradient>
  </defs>
  <g id="Group_123" data-name="Group 123" transform="translate(-36 -378)">
    <rect id="Rectangle_132" data-name="Rectangle 132" width="303" height="160" rx="12" transform="translate(36 378)" fill="url(#linear-gradient)"/>
    <path id="Subtraction_6" data-name="Subtraction 6" d="M15.9,27.078a10.982,10.982,0,0,1-5.148-1.092A16.55,16.55,0,0,1,6.928,23.14l3.12-4.29a16.016,16.016,0,0,0,2.418,1.989,6,6,0,0,0,3.276.936,4.162,4.162,0,0,0,2.73-.9,2.688,2.688,0,0,0,.936-2.106,2.3,2.3,0,0,0-.9-1.872,12.559,12.559,0,0,0-3.024-1.436l-.018-.007-2.145-.741A8.682,8.682,0,0,1,9.7,12.649a6.261,6.261,0,0,1-1.56-4.524A7.969,7.969,0,0,1,10.4,2.274,8.308,8.308,0,0,1,16.835-.1,12.522,12.522,0,0,1,24.557,2.47L21.866,6.837A6.5,6.5,0,0,0,17.5,4.965a3.284,3.284,0,0,0-2.535.9A2.326,2.326,0,0,0,14.3,7.5a1.828,1.828,0,0,0,.585,1.443,6.6,6.6,0,0,0,2.3,1.121c.289.105.618.225.979.362l1.95.741a10.317,10.317,0,0,1,3.549,1.989,6.536,6.536,0,0,1,1.912,4.837,9.368,9.368,0,0,1-2.3,6.435C21.595,26.186,19.115,27.078,15.9,27.078Zm46.644-.585H47.84V.481h14.7V5.55h-8.7v5.031h8.268v5.071H53.845v5.772h8.7v5.069Zm-23.517,0H33.019V5.55H27.365V.481H44.681V5.55H39.026V26.492Zm-36.27,0H0V.481H2.756V26.492Z" transform="translate(185.237 443.787)" fill="#8082bd"/>
    <path id="Subtraction_5" data-name="Subtraction 5" d="M33.572,26.478c-3.172,0-5.468-.74-7.02-2.262a6.672,6.672,0,0,1-1.911-5.226V8.5h5.616v9.594a3.674,3.674,0,0,0,.975,2.808,3.334,3.334,0,0,0,2.34.819,3.474,3.474,0,0,0,2.379-.819,3.773,3.773,0,0,0,.936-2.808V8.5H42.5V18.639a7.023,7.023,0,0,1-1.949,5.577C39,25.738,36.717,26.478,33.572,26.478Zm19.968-.584H47.534V-.12H52.76L66.878,16.65V-.12h3.077V25.892h-2.3L53.54,9.045V25.893Zm-47.151,0H.382V-.12H6.389V10.723L15.281-.12h7.331L12.082,12.2,23.43,25.891l-7.721,0L6.389,14.35V25.893Z" transform="translate(118.109 444.387)" fill="#e3ce61"/>
    <rect id="Rectangle_136" data-name="Rectangle 136" width="5.91" height="6.003" transform="translate(154.773 444.318)" fill="#e3ce61"/>
    <rect id="Rectangle_137" data-name="Rectangle 137" width="5.91" height="6.003" transform="translate(142.909 444.318)" fill="#e3ce61"/>
  </g>
</svg>
